# xmcd CD database file
#
# Track frame offsets:
#	150
#	21710
#	47961
#	58887
#	85941
#	117850
#	137671
#	169347
#	190907
#	217158
#	228084
#	255138
#	287047
#	305814
#	324396
#	346775
#
# Disc length: 4856 seconds
#
# Revision: 0
# Processed by: cddbd v1.5.2PL0 Copyright (c) Steve Scherf et al.
# Submitted via: CDex 1.51
#
DISCID=f012f610
DTITLE=John Coltrane - Giant Steps
DYEAR=1960
DGENRE=Jazz
TTITLE0=Giant steps
TTITLE1=Cousin Mary
TTITLE2=Countdown
TTITLE3=Spiral
TTITLE4=Syeeda's song flute
TTITLE5=Naïma
TTITLE6=Mr Pc
TTITLE7=Giant Step
TTITLE8=Naïma
TTITLE9=Cousin Mary
TTITLE10=Countdown
TTITLE11=Syeeda's song
TTITLE12=Miissiri
TTITLE13=Oh Ba Hoba
TTITLE14=Politiciens
TTITLE15=Plus jamais ça
EXTD=YEAR: 1960
EXTT0=
EXTT1=
EXTT2=
EXTT3=
EXTT4=
EXTT5=
EXTT6=
EXTT7=
EXTT8=
EXTT9=
EXTT10=
EXTT11=
EXTT12=
EXTT13=
EXTT14=
EXTT15=
PLAYORDER=
